<?xml version="1.0" encoding="UTF-8"?>
<!DOCTYPE svg PUBLIC "-//W3C//DTD SVG 1.1//EN" "http://www.w3.org/Graphics/SVG/1.1/DTD/svg11.dtd">
<svg xmlns="http://www.w3.org/2000/svg" version="1.1" width="225px" height="225px" style="shape-rendering:geometricPrecision; text-rendering:geometricPrecision; image-rendering:optimizeQuality; fill-rule:evenodd; clip-rule:evenodd" xmlns:xlink="http://www.w3.org/1999/xlink">
<g><path style="opacity:1" fill="#fefefe" d="M -0.5,-0.5 C 74.5,-0.5 149.5,-0.5 224.5,-0.5C 224.5,74.5 224.5,149.5 224.5,224.5C 149.5,224.5 74.5,224.5 -0.5,224.5C -0.5,149.5 -0.5,74.5 -0.5,-0.5 Z"/></g>
<g><path style="opacity:1" fill="#f24d1d" d="M 111.5,18.5 C 111.5,39.1667 111.5,59.8333 111.5,80.5C 99.5,80.5 87.5,80.5 75.5,80.5C 59.3472,76.1804 50.6806,65.6804 49.5,49C 50.8189,33.6788 58.8189,23.6788 73.5,19C 86.1623,18.5001 98.8289,18.3334 111.5,18.5 Z"/></g>
<g><path style="opacity:1" fill="#fe7161" d="M 111.5,18.5 C 125.551,18.0913 139.551,18.5913 153.5,20C 174.486,30.6255 179.653,46.4589 169,67.5C 163.683,74.2409 156.85,78.5742 148.5,80.5C 145.167,80.5 141.833,80.5 138.5,80.5C 129.833,80.5 121.167,80.5 112.5,80.5C 112.167,80.5 111.833,80.5 111.5,80.5C 111.5,59.8333 111.5,39.1667 111.5,18.5 Z"/></g>
<g><path style="opacity:1" fill="#a259fe" d="M 75.5,80.5 C 87.5,80.5 99.5,80.5 111.5,80.5C 111.5,101.167 111.5,121.833 111.5,142.5C 99.8333,142.5 88.1667,142.5 76.5,142.5C 59.1205,139.281 50.1205,128.781 49.5,111C 51.1807,94.8231 59.8474,84.6564 75.5,80.5 Z"/></g>
<g><path style="opacity:1" fill="#fbfafb" d="M 112.5,80.5 C 121.167,80.5 129.833,80.5 138.5,80.5C 126.094,83.9038 117.428,91.5705 112.5,103.5C 112.5,95.8333 112.5,88.1667 112.5,80.5 Z"/></g>
<g><path style="opacity:1" fill="#1fbcfd" d="M 138.5,80.5 C 141.833,80.5 145.167,80.5 148.5,80.5C 166.577,85.6375 175.077,97.6375 174,116.5C 169.725,135.393 157.892,144.227 138.5,143C 125.921,139.915 117.254,132.415 112.5,120.5C 112.5,114.833 112.5,109.167 112.5,103.5C 117.428,91.5705 126.094,83.9038 138.5,80.5 Z"/></g>
<g><path style="opacity:1" fill="#a591f2" d="M 111.5,80.5 C 111.833,80.5 112.167,80.5 112.5,80.5C 112.5,88.1667 112.5,95.8333 112.5,103.5C 112.5,109.167 112.5,114.833 112.5,120.5C 112.825,128.352 112.492,136.018 111.5,143.5C 99.8333,143.5 88.1667,143.5 76.5,143.5C 76.5,143.167 76.5,142.833 76.5,142.5C 88.1667,142.5 99.8333,142.5 111.5,142.5C 111.5,121.833 111.5,101.167 111.5,80.5 Z"/></g>
<g><path style="opacity:1" fill="#0dcf83" d="M 76.5,143.5 C 88.1667,143.5 99.8333,143.5 111.5,143.5C 111.929,157.559 111.429,171.559 110,185.5C 102.772,201.033 90.6055,207.533 73.5,205C 55.6684,198.848 47.8351,186.348 50,167.5C 54.2887,154.374 63.122,146.374 76.5,143.5 Z"/></g>
</svg>
